nColumns=19
nRows=47
DataType=double
version=3
OpenSimVersion=4.1
endheader
time	ground_force_1_vx	ground_force_1_vy	ground_force_1_vz	ground_force_1_px	ground_force_1_py	ground_force_1_pz	ground_force_1_mx	ground_force_1_my	ground_force_1_mz	ground_force_2_vx	ground_force_2_vy	ground_force_2_vz	ground_force_2_px	ground_force_2_py	ground_force_2_pz	ground_force_2_mx	ground_force_2_my	ground_force_2_mz
1.59	0	0	0	0.137452	0	-0.214076	0	0	0	0	0	0	1.43201	0	-0.388869	0	0	0
1.595	0	0	0	0.129336	0	-0.212875	0	0	0	0	0	0	1.445	0	-0.389014	0	0	0
1.6	0	0	0	0.123459	0	-0.214538	0	0	0	0	0	0	1.45337	0	-0.389816	0	0	0
1.605	0	0	0	0.120517	0	-0.215074	0	0	0	0	0	0	1.4575	0	-0.391408	0	0	0
1.61	0	0	0	0.121383	0	-0.216056	0	0	0	0	0	0	1.45809	0	-0.392707	0	0	0
1.615	0	0	0	0.125319	0	-0.217615	0	0	0	0	0	0	1.45542	0	-0.39362	0	0	0
1.62	0	0	0	0.131974	0	-0.219274	0	0	0	0	0	0	1.45017	0	-0.394725	0	0	0
1.625	0	0	0	0.141281	0	-0.220791	0	0	0	0	0	0	1.44298	0	-0.395371	0	0	0
1.63	0	0	0	0.151468	0	-0.222657	0	0	0	0	0	0	1.43306	0	-0.394036	0	0	0
1.635	0	0	0	0.166488	0	-0.22385	0	0	0	0	0	0	1.42088	0	-0.391569	0	0	0
1.64	0	0	0	0.181439	0	-0.225124	0	0	0	0	0	0	1.40621	0	-0.387708	0	0	0
1.645	0	0	0	0.19863	0	-0.224714	0	0	0	0	0	0	1.38915	0	-0.382859	0	0	0
1.65	0	0	0	0.217711	0	-0.223498	0	0	0	0	0	0	1.36988	0	-0.377497	0	0	0
1.655	0	0	0	0.236349	0	-0.223178	0	0	0	0	0	0	1.34885	0	-0.371609	0	0	0
1.66	0	0	0	0.25638	0	-0.222343	0	0	0	0	0	0	1.32605	0	-0.365474	0	0	0
1.665	0	0	0	0.277658	0	-0.220985	0	0	0	0	0	0	1.30139	0	-0.359526	0	0	0
1.67	0	0	0	0.299554	0	-0.220226	0	0	0	-64.2061	48.0917	-2.82402	1.27536	0	-0.35365	0	-12.1469	0
1.675	0	0	0	0.321761	0	-0.218938	0	0	0	-139.707	204.698	13.879	1.15886	0	-0.40646	0	-6.80308	0
1.68	0	0	0	0.34478	0	-0.217235	0	0	0	-229.221	459.39	46.8436	1.10638	0	-0.39075	0	-3.56791	0
1.685	0	0	0	0.368086	0	-0.215551	0	0	0	-310.248	797.996	104.069	1.08295	0	-0.374785	0	3.29695	0
1.69	0	0	0	0.39128	0	-0.213969	0	0	0	-351.708	1177.91	175.75	1.06674	0	-0.361882	0	12.2687	0
1.695	0	0	0	0.414373	0	-0.213793	0	0	0	-342.401	1577.53	231.179	1.04864	0	-0.351265	0	11.2939	0
1.7	0	0	0	0.437593	0	-0.212373	0	0	0	-316.937	1992.17	240.484	1.02134	0	-0.342267	0	-6.52871	0
1.705	0	0	0	0.460501	0	-0.210491	0	0	0	-303.817	2388.47	185.063	0.993774	0	-0.335168	0	-28.5504	0
1.71	0	0	0	0.483692	0	-0.208143	0	0	0	-303.551	2713.32	67.7411	0.975938	0	-0.329984	0	-39.3055	0
1.715	0	0	0	0.506648	0	-0.207546	0	0	0	-322.309	2937.63	-84.1463	0.96395	0	-0.326772	0	-36.1192	0
1.72	0	0	0	0.529183	0	-0.207004	0	0	0	-347.591	3060.13	-223.758	0.95176	0	-0.324978	0	-23.8834	0
1.725	0	0	0	0.552204	0	-0.206544	0	0	0	-348.609	3097.72	-309.487	0.93479	0	-0.324129	0	-10.218	0
1.73	0	0	0	0.575992	0	-0.205818	0	0	0	-303.379	3077.37	-324.593	0.908327	0	-0.323819	0	-0.464912	0
1.735	0	0	0	0.601157	0	-0.206386	0	0	0	-202.852	3021.61	-283.269	0.87212	0	-0.323964	0	4.18401	0
1.74	0	0	0	0.628226	0	-0.206374	0	0	0	-63.9533	2949.32	-218.06	0.832112	0	-0.324218	0	7.41812	0
1.745	0	0	0	0.657325	0	-0.207041	0	0	0	75.4687	2865.05	-159.945	0.794746	0	-0.324425	0	11.1869	0
1.75	0	0	0	0.688472	0	-0.207393	0	0	0	186.297	2756.69	-121.756	0.76254	0	-0.3245	0	11.1433	0
1.755	0	0	0	0.721373	0	-0.207105	0	0	0	270.404	2614.62	-93.8907	0.736001	0	-0.324144	0	3.98205	0
1.76	0	0	0	0.755792	0	-0.208276	0	0	0	342.156	2435.82	-57.5551	0.713257	0	-0.323058	0	-8.65673	0
1.765	0	0	0	0.791611	0	-0.209015	0	0	0	402.906	2211.93	-5.63475	0.689198	0	-0.321545	0	-26.3992	0
1.77	0	0	0	0.828575	0	-0.209766	0	0	0	448.164	1928.72	47.7799	0.656952	0	-0.320387	0	-48.3452	0
1.775	0	0	0	0.86605	0	-0.210117	0	0	0	474.979	1585.97	77.0478	0.606618	0	-0.320601	0	-68.3823	0
1.78	0	0	0	0.904841	0	-0.210137	0	0	0	485.94	1208.86	60.3726	0.526361	0	-0.323753	0	-71.7991	0
1.785	0	0	0	0.943695	0	-0.209216	0	0	0	481.202	841.027	-4.47153	0.408157	0	-0.331841	0	-36.6649	0
1.79	0	0	0	0.982132	0	-0.209182	0	0	0	447.113	521.011	-96.5481	0.249503	0	-0.347826	0	51.8383	0
1.795	0	0	0	1.02016	0	-0.208863	0	0	0	373.625	269.885	-176.725	0.0611142	0	-0.374401	0	172.081	0
1.8	0	0	0	1.05763	0	-0.207784	0	0	0	271.241	98.8717	-206.097	0.277606	0	-0.342215	0	251.919	0
1.805	0	0	0	1.0941	0	-0.208534	0	0	0	0	0	0	0.354399	0	-0.328933	0	0	0
1.81	0	0	0	1.12934	0	-0.209531	0	0	0	0	0	0	0.329842	0	-0.331359	0	0	0
1.815	0	0	0	1.1639	0	-0.211714	0	0	0	0	0	0	0.3062	0	-0.332546	0	0	0
1.82	0	0	0	1.19645	0	-0.213727	0	0	0	0	0	0	0.284062	0	-0.333744	0	0	0
